<?xml version="1.0" encoding="UTF-8"?>
<svg version="1.1" xmlns="http://www.w3.org/2000/svg" width="800" height="800" viewBox="0 0 800 800">
<path d="M0 0 C413.82 0 827.64 0 1254 0 C1254 413.82 1254 827.64 1254 1254 C840.18 1254 426.36 1254 0 1254 C0 840.18 0 426.36 0 0 Z " fill="#FDFDFD" transform="translate(0,0)"/>
<path d="M0 0 C0.94564819 -0.00267883 1.89129639 -0.00535767 2.86560059 -0.00811768 C13.27784408 -0.03045186 23.67735681 0.09070558 34.08203125 0.5078125 C35.43007088 0.5533577 35.43007088 0.5533577 36.80534363 0.599823 C37.63117447 0.63794098 38.45700531 0.67605896 39.30786133 0.71533203 C40.03515945 0.74595734 40.76245758 0.77658264 41.51179504 0.80813599 C43.3125 1.125 43.3125 1.125 45.3125 3.125 C46.27416504 7.14689879 46.70444986 11.27836017 47.25 15.375 C47.42184814 16.63666992 47.59369629 17.89833984 47.77075195 19.19824219 C49.74049208 34.13278375 50.77942657 49.1519281 51.85862732 64.17169189 C52.22415192 69.17464065 52.69883177 74.14683153 53.3125 79.125 C53.92488525 79.10469727 54.53727051 79.08439453 55.16821289 79.06347656 C61.27268765 78.94912341 66.79955086 79.56437343 72.75 80.875 C73.61343018 81.05764404 74.47686035 81.24028809 75.36645508 81.4284668 C77.1519787 81.80658342 78.93673671 82.18833378 80.72070312 82.57373047 C83.12743242 83.08563653 85.53754706 83.56707323 87.953125 84.03515625 C110.56141921 88.4721617 132.52693894 95.23283378 153.83984375 103.96484375 C154.52804199 104.24642334 155.21624023 104.52800293 155.92529297 104.81811523 C157.72761953 105.5640067 159.52239018 106.32808593 161.31640625 107.09375 C164.33531978 108.13285453 166.16241024 108.46166718 169.3125 108.125 C171.08346391 106.80122626 171.08346391 106.80122626 172.4765625 104.86328125 C173.03537109 104.16332031 173.59417969 103.46335937 174.16992188 102.7421875 C174.75322266 101.98164063 175.33652344 101.22109375 175.9375 100.4375 C177.18927953 98.86002235 178.44189149 97.28320493 179.6953125 95.70703125 C180.61812012 94.53261475 180.61812012 94.53261475 181.55957031 93.33447266 C183.90991705 90.37198826 186.34974394 87.49406002 188.8125 84.625 C193.70802077 78.88031227 198.50431786 73.05607678 203.27929688 67.2109375 C204.3874111 65.85844336 205.50192936 64.51116868 206.62304688 63.16943359 C207.80037551 61.74472984 208.9509443 60.29766789 210.08007812 58.83447266 C210.96083008 57.73498291 210.96083008 57.73498291 211.859375 56.61328125 C212.63812988 55.61035034 212.63812988 55.61035034 213.43261719 54.5871582 C215.3125 53.125 215.3125 53.125 218.21948242 52.73535156 C221.6313679 53.16516996 223.39427274 53.99691112 226.25390625 55.87109375 C227.16060059 56.45656982 228.06729492 57.0420459 229.00146484 57.64526367 C229.94973145 58.27795166 230.89799805 58.91063965 231.875 59.5625 C233.35154053 60.52603394 233.35154053 60.52603394 234.85791016 61.5090332 C242.09921461 66.25491858 249.23409267 71.13995624 256.3125 76.125 C258.21837962 77.43830382 260.12826149 78.7456445 262.03857422 80.05249023 C274.52425476 88.59667186 286.94772822 97.22365544 298.9921875 106.3828125 C300.72604406 107.6846644 302.5084513 108.92230086 304.3125 110.125 C305.48535737 116.12781329 302.2684855 120.50149113 299.375 125.5 C298.28154013 127.44270977 297.19055203 129.3868121 296.1015625 131.33203125 C295.50118164 132.40018066 294.90080078 133.46833008 294.28222656 134.56884766 C290.48736668 141.3775844 286.88848777 148.29443697 283.25 155.1875 C281.80242062 157.92925627 280.35295999 160.67000578 278.90234375 163.41015625 C278.58401581 164.01454025 278.26568787 164.61892426 277.93771362 165.24162292 C276.55934041 167.84513244 275.14766916 170.39110651 273.59594727 172.89624023 C272.13722342 175.04044255 272.13722342 175.04044255 272.1875 177.5 C274.21481601 182.23040402 278.20338845 185.32630264 282.06420898 188.61889648 C287.11863505 192.95205564 291.72713418 197.55578158 296.25 202.4375 C296.95165283 203.19095703 297.65330566 203.94441406 298.3762207 204.72070312 C299.75345689 206.20208931 301.12878695 207.68525051 302.50195312 209.17041016 C303.95609781 210.74024327 305.42155699 212.29959217 306.890625 213.85546875 C319.41079441 227.32624361 330.18130782 242.80185899 340.3125 258.125 C347.2118425 257.53546663 353.39416374 255.71912466 359.96875 253.59765625 C361.07045532 253.24867783 362.17216064 252.8996994 363.30725098 252.54014587 C366.81111583 251.42912537 370.31191724 250.3088143 373.8125 249.1875 C377.31356014 248.07133523 380.81524119 246.95717941 384.31774902 245.8455658 C386.49131169 245.15517612 388.66397048 244.46193218 390.83557129 243.76539612 C408.06404159 238.27530832 408.06404159 238.27530832 412.3125 239.125 C415.95850043 244.52816001 418.39922165 250.63681566 421.0625 256.5625 C421.34128998 257.18237793 421.62007996 257.80225586 421.90731812 258.44091797 C429.04450346 274.36882096 435.37688486 290.61489438 441.67089844 306.89013672 C443.11071275 310.61162342 444.57168583 314.32443988 446.0390625 318.03515625 C446.77669071 319.91901683 447.51373717 321.80310538 448.25 323.6875 C448.57395752 324.50089844 448.89791504 325.31429688 449.23168945 326.15234375 C450.69309914 329.94410942 451.82131799 333.05973093 451.3125 337.125 C449.80737305 338.68408203 449.80737305 338.68408203 447.63671875 340.0078125 C446.81220215 340.5121582 445.98768555 341.01650391 445.13818359 341.53613281 C439.87031775 344.49822638 434.51616751 347.27006205 429.125 350 C418.0769553 355.6388467 418.0769553 355.6388467 407.25 361.6875 C392.78830645 370.125 392.78830645 370.125 389.3125 370.125 C389.60382813 371.07890625 389.89515625 372.0328125 390.1953125 373.015625 C393.4661539 384.28981914 395.58535827 395.6844286 397.5 407.25 C397.68915985 408.38217957 397.68915985 408.38217957 397.88214111 409.53723145 C400.96421893 428.09203366 402.6832139 446.39038241 403.4375 465.1875 C403.52415958 467.2298424 403.61139576 469.27216042 403.69921875 471.31445312 C403.91027238 476.25104717 404.11359626 481.18790211 404.3125 486.125 C405.90094727 486.5880957 405.90094727 486.5880957 407.52148438 487.06054688 C416.98128969 489.82600861 426.4074011 492.67819392 435.8125 495.625 C444.69929331 498.40410284 453.58543579 501.16720357 462.56640625 503.62890625 C465.47627126 504.45152632 467.13411198 504.94661198 469.3125 507.125 C469.67463413 517.45159583 467.10123739 528.12315686 465.25 538.25 C465.09865601 539.08883728 464.94731201 539.92767456 464.79138184 540.79193115 C461.77598719 557.45208486 458.13628902 573.94531761 454.18945312 590.40722656 C453.5992192 592.90947662 453.03056937 595.41690566 452.48242188 597.92871094 C452.22525391 599.1046582 451.96808594 600.28060547 451.703125 601.4921875 C451.48172852 602.5322998 451.26033203 603.57241211 451.03222656 604.64404297 C450.3125 607.125 450.3125 607.125 448.3125 609.125 C442.88427736 609.76373735 437.26272842 608.9907913 431.875 608.3125 C423.22384469 607.2789207 414.55548495 606.4752023 405.87765503 605.70547485 C404.34169135 605.56915486 402.80582133 605.43177512 401.27005005 605.29330444 C399.08132022 605.09629177 396.89229149 604.90303059 394.703125 604.7109375 C393.42469727 604.5979834 392.14626953 604.4850293 390.82910156 604.36865234 C387.64152006 604.14779659 384.5061241 604.07892039 381.3125 604.125 C381.06717529 604.78693359 380.82185059 605.44886719 380.5690918 606.13085938 C369.49236241 635.85976781 356.598288 664.73338131 339.41259766 691.47729492 C338.89101074 692.29302979 338.36942383 693.10876465 337.83203125 693.94921875 C337.13750854 695.01789185 337.13750854 695.01789185 336.42895508 696.1081543 C335.26944578 698.20277627 334.54208691 699.73723668 334.3125 702.125 C335.23335557 703.97668251 335.23335557 703.97668251 336.77734375 705.6640625 C337.32616211 706.32188721 337.87498047 706.97971191 338.44042969 707.6574707 C339.03758789 708.34800537 339.63474609 709.03854004 340.25 709.75 C341.46250324 711.19378904 342.6747436 712.63779889 343.88671875 714.08203125 C344.47888184 714.77893066 345.07104492 715.47583008 345.68115234 716.19384766 C347.689512 718.57129825 349.63233543 720.9962939 351.5625 723.4375 C354.28707877 726.85467128 357.04114428 730.24564277 359.8125 733.625 C360.55242187 734.53507813 361.29234375 735.44515625 362.0546875 736.3828125 C363.57686756 738.23155022 365.12456124 740.05953605 366.6953125 741.8671875 C367.43523437 742.73601563 368.17515625 743.60484375 368.9375 744.5 C369.61039063 745.27085937 370.28328125 746.04171875 370.9765625 746.8359375 C372.3125 749.125 372.3125 749.125 372.07763672 751.53955078 C371.24935261 754.33837933 370.36900572 755.65085678 368.40625 757.78125 C367.77460937 758.46832031 367.14296875 759.15539062 366.4921875 759.86328125 C361.43246118 765.11342737 356.24285263 770.22902293 351.05078125 775.34765625 C346.46478497 779.89394693 342.05187071 784.4879639 337.85058594 789.39111328 C335.63032629 791.8940155 333.18999602 794.09550001 330.6875 796.3125 C326.16695922 800.36509982 321.82786065 804.55497116 317.5625 808.875 C312.97834205 813.50779623 308.31167167 817.93714974 303.3125 822.125 C302.425625 822.95 301.53875 823.775 300.625 824.625 C298.3125 826.125 298.3125 826.125 296.08984375 826.0703125 C292.13704464 824.72491534 289.62144452 822.27862122 286.5625 819.5 C285.31253619 818.39561887 284.06123687 817.29274743 282.80859375 816.19140625 C282.20644043 815.65918457 281.60428711 815.12696289 280.98388672 814.57861328 C278.25285775 812.2034239 275.38726497 810.01941392 272.51171875 807.82421875 C269.94892094 805.8440819 267.44249495 803.80275326 264.9375 801.75 C264.02097656 800.99976563 263.10445312 800.24953125 262.16015625 799.4765625 C260.20003192 797.85791388 258.25003534 796.22694795 256.30859375 794.5859375 C255.34050781 793.77382813 254.37242187 792.96171875 253.375 792.125 C252.49972656 791.3825 251.62445312 790.64 250.72265625 789.875 C248.41831252 788.20182984 247.06543971 787.58478116 244.3125 787.125 C240.97739696 786.01329899 240.20885827 785.13031858 238 782.5 C237.38382813 781.77683594 236.76765625 781.05367187 236.1328125 780.30859375 C235.01832809 778.97169078 233.90793516 777.63134704 232.8046875 776.28515625 C226.5922629 768.79969382 219.0219497 762.99631702 211.3125 757.125 C212.68446165 753.9626284 214.1690122 752.1313782 216.8125 749.9375 C217.89337891 749.01904297 217.89337891 749.01904297 218.99609375 748.08203125 C219.76050781 747.43621094 220.52492188 746.79039062 221.3125 746.125 C232.64222615 736.30855889 243.82204088 725.75913738 253.3125 714.125 C253.725 713.62629395 254.1375 713.12758789 254.5625 712.61376953 C274.16945887 688.86075582 290.14761645 662.9666578 303.3125 635.125 C303.79501221 634.13072998 304.27752441 633.13645996 304.7746582 632.11206055 C308.60984819 624.06654552 311.62074883 615.90859489 314.375 607.4375 C314.81194144 606.10707327 315.24895396 604.77666988 315.68603516 603.44628906 C343.26320425 519.0623188 341.50180907 427.84342344 301.1875 347.5 C300.2320166 345.64962249 299.26371838 343.80702055 298.28515625 341.96875 C297.26930984 340.0431295 296.28915335 338.10201497 295.3125 336.15625 C286.65165279 319.09326934 276.27446016 303.04764465 264.3125 288.125 C263.50365418 287.0565206 262.69904364 285.98482346 261.8984375 284.91015625 C252.83840659 272.77163211 242.3964255 262.12194324 231.75 251.375 C230.88785889 250.49972656 230.02571777 249.62445313 229.13745117 248.72265625 C223.1771436 242.75501326 216.91332037 237.36927228 210.3125 232.125 C209.21298868 231.21969625 208.11497298 230.31256759 207.01953125 229.40234375 C191.35828383 216.74230704 174.26400675 205.28480185 156.3125 196.125 C155.41515137 195.66673828 154.51780273 195.20847656 153.59326172 194.73632812 C128.53303535 182.07241219 101.32878156 170.53453181 73.50390625 165.73046875 C70.3125 165.125 70.3125 165.125 67.02954102 164.15185547 C61.0126696 162.48965769 54.87041764 161.83399938 48.6875 161.0625 C47.99406494 160.97440063 47.30062988 160.88630127 46.58618164 160.79553223 C31.84247571 158.94686845 17.16887949 158.32030145 2.3125 158.125 C1.77882813 156.9390625 1.24515625 155.753125 0.6953125 154.53125 C-6.92669545 137.85745771 -16.00515706 123.24116438 -27.6875 109.125 C-28.66203125 107.93583984 -28.66203125 107.93583984 -29.65625 106.72265625 C-33.61788696 102.03171794 -37.94036018 98.01042238 -42.6875 94.125 C-43.42830811 93.51567627 -43.42830811 93.51567627 -44.18408203 92.89404297 C-45.88532474 91.50220964 -47.59765512 90.12503148 -49.3125 88.75 C-49.9017627 88.26861572 -50.49102539 87.78723145 -51.09814453 87.29125977 C-54.74186704 84.39299967 -58.25081226 82.19066289 -62.5559082 80.40039062 C-65.70473632 78.64967935 -68.52937728 77.03682202 -70.6875 74.125 C-71.35757815 70.98780605 -71.02283261 68.0501713 -70.6875 64.87890625 C-70.61667709 63.96404953 -70.54585419 63.04919281 -70.47288513 62.10661316 C-70.31736641 60.1353587 -70.14792298 58.16516334 -69.96603394 56.19616699 C-69.68649435 53.1139115 -69.45538856 50.03159327 -69.23852539 46.94433594 C-68.86449462 41.6740536 -68.44865886 36.40833931 -68.01293945 31.14282227 C-67.74488796 27.87518248 -67.49060365 24.60662801 -67.23632812 21.33789062 C-67.06593757 19.2525359 -66.89474552 17.16724648 -66.72265625 15.08203125 C-66.61160301 13.62142021 -66.61160301 13.62142021 -66.49830627 12.13130188 C-66.42160202 11.23823837 -66.34489777 10.34517487 -66.26586914 9.42504883 C-66.202267 8.64011551 -66.13866486 7.85518219 -66.07313538 7.04646301 C-65.6875 5.125 -65.6875 5.125 -63.6875 3.125 C-61.28851675 2.65802234 -58.98635657 2.31954205 -56.5625 2.0625 C-55.80227539 1.98016113 -55.04205078 1.89782227 -54.25878906 1.81298828 C-36.22121354 -0.01099563 -18.10975229 0.02866056 0 0 Z " fill="#0154CF" transform="translate(662.6875,173.875)"/>
<path d="M0 0 C4.10319293 1.7223279 7.29263231 4.57116143 10.6875 7.375 C24.3612696 18.46152237 38.83614395 28.08150311 54 37 C54.65258789 37.38752441 55.30517578 37.77504883 55.97753906 38.17431641 C72.2091699 47.77102895 89.90539244 57.33493395 107.9375 63 C111.5644392 64.14266439 115.08141336 65.42580334 118.59765625 66.8671875 C124.47524136 69.24221393 130.46241424 71.20029084 136.5 73.125 C138.09521484 73.64513672 138.09521484 73.64513672 139.72265625 74.17578125 C146.10676913 76.22026403 152.41228759 77.78873967 159 79 C161.04421852 79.46816036 163.08629665 79.94587807 165.125 80.4375 C176.73279318 83.12036974 188.31070146 85.12758169 200.125 86.625 C201.57193237 86.8096582 201.57193237 86.8096582 203.0480957 86.99804688 C215.23186303 88.48469852 227.39367375 89.15900057 239.6640625 89.23828125 C240.92424194 89.24789383 242.18442139 89.25750641 243.48278809 89.26741028 C247.5302247 89.29196876 251.57750548 89.30505369 255.625 89.3125 C256.31288353 89.31423973 257.00076706 89.31597946 257.70949554 89.31777191 C280.02584375 89.36761041 301.92347415 88.51379832 324 85 C325.04124023 84.84370117 326.08248047 84.68740234 327.15527344 84.52636719 C333.16521751 83.58907207 338.99685417 82.3013137 344.88330078 80.77636719 C350.52749122 79.37040404 356.23623956 78.27244514 361.9375 77.125 C377.86448339 73.86870419 393.62587274 70.29687704 409.2512207 65.80883789 C415.68579281 64.00132563 422.18223478 62.65804599 428.75024414 61.43139648 C433.16842392 60.60059211 437.5158235 59.63774291 441.87109375 58.51953125 C461.59472126 53.533958 480.9999134 52.61649529 501.25 52.625 C502.30512787 52.62327789 503.36025574 52.62155579 504.44735718 52.61978149 C521.0777569 52.62285123 536.83202451 53.8587281 553.125 57.375 C554.66873291 57.70371094 554.66873291 57.70371094 556.24365234 58.0390625 C567.61997552 60.50461939 578.56879086 63.70055913 589.5 67.7265625 C591.8202374 68.57075602 594.15402211 69.3786635 596.5 70.1484375 C604.14554816 72.6912649 610.81318556 75.90601462 617.6875 80.0234375 C620.65005482 81.79118837 623.64162025 83.44437638 626.6875 85.0625 C639.22761173 91.86578642 650.84329993 100.13970474 662 109 C663.20462891 109.94166016 663.20462891 109.94166016 664.43359375 110.90234375 C669.62901419 114.9954597 674.61399552 119.25686366 679.49609375 123.71875 C681.16076737 125.23539492 682.84054101 126.73563528 684.53515625 128.21875 C690.43958766 133.40223847 696.14591306 138.79755558 701 145 C701 145.66 701 146.32 701 147 C694.65055748 146.04713476 688.31059744 145.07217721 681.9921875 143.9296875 C649.69295961 138.24216914 619.39653369 140.87732273 588.34423828 151.23193359 C585.46054227 152.17674797 582.54611938 152.99178603 579.625 153.8125 C560.43454029 159.77336363 542.14256857 168.53874869 523.99456787 177.06396484 C485.48243797 195.13740725 485.48243797 195.13740725 466.9375 202.875 C465.82270264 203.34421875 464.70790527 203.8134375 463.55932617 204.296875 C456.87757831 207.03706552 450.17277873 209.19842425 443.20751953 211.10205078 C440.58050604 211.83748659 438.03343421 212.6504172 435.46484375 213.5625 C395.60493308 227.13963873 345.13621186 229.03123087 304.08300781 220.62402344 C300.82172998 219.96391684 297.55171937 219.38959498 294.2734375 218.8203125 C279.8885422 216.20669491 266.04656157 212.40353196 252.125 208 C251.32911469 207.74887451 250.53322937 207.49774902 249.71322632 207.23901367 C235.41842494 202.69784391 221.58467719 197.38520289 208 191 C207.08798828 190.57380371 206.17597656 190.14760742 205.23632812 189.70849609 C174.05547305 175.06474615 145.34810557 157.98116795 118 137 C117.37287109 136.51998535 116.74574219 136.0399707 116.09960938 135.54541016 C108.43648659 129.66165646 101.09091042 123.57098407 94 117 C92.98918244 116.07973833 91.97741739 115.16051659 90.96484375 114.2421875 C85.51100311 109.28783854 80.15416959 104.26758653 75 99 C72.38773484 96.37895412 69.76642191 93.7675362 67.1328125 91.16796875 C61.52443036 85.62054729 56.10137086 80.02215772 51 74 C49.69675781 72.51306641 49.69675781 72.51306641 48.3671875 70.99609375 C36.81086234 57.7836319 26.44745217 43.89485337 16.6875 29.3125 C16.31308777 28.75535309 15.93867554 28.19820618 15.55291748 27.62417603 C11.3110092 21.29536642 7.26379067 14.89093657 3.45703125 8.29296875 C3.1089592 7.6934993 2.76088715 7.09402985 2.40226746 6.47639465 C0 2.24572007 0 2.24572007 0 0 Z " fill="#F5750B" transform="translate(224,854)"/>
<path d="M0 0 C35.5640736 -1.28332246 68.0772289 10.13273214 96.07910156 32.078125 C97.38814453 33.07392578 97.38814453 33.07392578 98.72363281 34.08984375 C115.86818956 47.40049961 130.2527113 62.9722213 143.01660156 80.453125 C143.58475586 81.22648193 144.15291016 81.99983887 144.73828125 82.79663086 C145.53927246 83.90663452 145.53927246 83.90663452 146.35644531 85.0390625 C146.83331787 85.69696777 147.31019043 86.35487305 147.80151367 87.03271484 C149.21581854 89.29700802 150.15598937 91.57792765 151.07910156 94.078125 C150.37116455 94.14805664 149.66322754 94.21798828 148.93383789 94.29003906 C134.28725935 95.76167655 119.85594551 97.55405888 105.44677734 100.58398438 C103.24283068 101.04395427 101.03573719 101.47930139 98.82519531 101.90625 C88.75347194 103.89264654 78.82660142 106.38436896 68.881073 108.91418457 C68.10079742 109.11265991 67.32052185 109.31113525 66.51660156 109.515625 C65.73785675 109.71377808 64.95911194 109.91193115 64.1567688 110.11608887 C51.09041826 113.43034817 38.00821904 116.23361838 24.73193359 118.59350586 C22.09497121 119.07522593 19.47053346 119.60168547 16.84472656 120.140625 C12.72940229 120.9715961 8.62176799 121.61856994 4.45410156 122.140625 C3.24496094 122.29660156 2.03582031 122.45257812 0.79003906 122.61328125 C-31.58889532 126.06004723 -65.71806496 125.85789485 -97.92089844 121.078125 C-98.56941772 120.98337891 -99.21793701 120.88863281 -99.8861084 120.79101562 C-122.31805184 117.49509116 -144.16993641 112.45295363 -165.92089844 106.078125 C-166.92846191 105.78325195 -167.93602539 105.48837891 -168.97412109 105.18457031 C-183.17184238 100.91223786 -195.97229406 94.22734764 -208.92089844 87.078125 C-208.92089844 86.418125 -208.92089844 85.758125 -208.92089844 85.078125 C-208.17332275 84.83280029 -207.42574707 84.58747559 -206.65551758 84.3347168 C-188.95264585 78.48419124 -171.83768074 71.96783842 -154.92089844 64.078125 C-153.43203125 63.38734863 -153.43203125 63.38734863 -151.91308594 62.68261719 C-140.51831436 57.37571802 -129.29709591 51.79610996 -118.20605469 45.8828125 C-106.84082629 39.8287929 -95.37280179 33.96608261 -83.92089844 28.078125 C-83.08333008 27.64693359 -82.24576172 27.21574219 -81.3828125 26.77148438 C-55.97508036 13.73075175 -29.0070693 1.17974862 0 0 Z " fill="#0053CF" transform="translate(559.9208984375,797.921875)"/>
<path d="M0 0 C-0.474375 0.7425 -0.94875 1.485 -1.4375 2.25 C-2.79646914 4.64178568 -3.42045741 6.36673854 -4 9 C-2.85337891 8.94779297 -2.85337891 8.94779297 -1.68359375 8.89453125 C20.40012379 8.33645897 42.89458833 16.47631717 62.10351562 26.97900391 C64.05599999 28.0301483 66.02985875 29.02503519 68.015625 30.01171875 C87.81643361 39.96229599 106.46076702 52.92174288 122.75390625 67.9375 C124.71593864 69.73915757 126.71654749 71.46787843 128.75 73.1875 C139.18784505 82.33906515 148.5331878 92.27579439 156.81542969 103.40966797 C157.88637819 104.84745827 158.97721628 106.27038116 160.0703125 107.69140625 C176.23093601 129.11895362 187.60006935 152.68704314 193 179 C193.16918945 179.74121094 193.33837891 180.48242188 193.51269531 181.24609375 C199.3665125 207.9704971 192.28004505 236.59616943 178.12866211 259.61035156 C177.75620361 260.06893555 177.38374512 260.52751953 177 261 C176.34 261 175.68 261 175 261 C174.90203125 260.23816406 174.8040625 259.47632813 174.703125 258.69140625 C173.71077332 251.8390468 172.26432247 246.10428302 169 240 C168.61328125 239.24589844 168.2265625 238.49179687 167.828125 237.71484375 C162.00326886 227.17870691 153.39893446 218.11548188 144.7890625 209.7890625 C142.93696907 207.93696907 141.2533339 205.99966201 139.5625 204 C136.27435233 200.14860481 132.59926096 196.91290318 128.72265625 193.6640625 C127.86994141 192.84035156 127.86994141 192.84035156 127 192 C127 191.34 127 190.68 127 190 C125.68 189.34 124.36 188.68 123 188 C123 187.34 123 186.68 123 186 C122.34 186 121.68 186 121 186 C119.765625 184.7421875 119.765625 184.7421875 118.25 182.875 C114.706175 178.6909041 110.89818794 174.84853928 107 171 C102.73978969 166.78028388 98.57300715 162.55574965 94.6953125 157.9765625 C92.5637683 155.49139806 90.34316401 153.09559854 88.125 150.6875 C84.03119791 146.19851943 80.14530333 141.58756524 76.33203125 136.859375 C74.29536806 134.36215983 72.21714447 131.90809441 70.11547852 129.46557617 C63.05691278 121.24341351 56.47945924 112.68301566 50 104 C49.48211914 103.30841797 48.96423828 102.61683594 48.43066406 101.90429688 C27.52044116 73.85689379 9.12040114 44.04244874 -5 12 C-10.70291231 16.43956377 -14.33367283 20.96648818 -18.0625 27.125 C-18.58344238 27.97102783 -19.10438477 28.81705566 -19.64111328 29.6887207 C-32.77554768 51.24672765 -41.45990523 74.79220537 -40.95703125 100.265625 C-40.93463775 102.22785442 -40.91318292 104.19009473 -40.89257812 106.15234375 C-40.85563016 109.1977371 -40.81264539 112.24255588 -40.75317383 115.28759766 C-40.37658361 135.58400126 -43.35717172 150.19163615 -57.55078125 165.66796875 C-61.70673746 169.62507538 -66.25479976 173.06228859 -70.828125 176.51953125 C-75.98571907 180.27511167 -75.98571907 180.27511167 -78.625 185.8125 C-77.54703025 191.31014574 -74.09766402 194.46452399 -69.66796875 197.70703125 C-68.11143535 198.7405292 -66.54054999 199.75288989 -64.953125 200.73828125 C-63 202 -63 202 -61 204 C-60.52614481 208.10674494 -60.70555134 210.43375258 -62.625 214.125 C-64.53612224 216.43846376 -65.90547737 217.73188757 -68.25 219.4375 C-71.30458956 221.78399855 -71.30458956 221.78399855 -71.6875 225.4375 C-70.6609961 230.75665656 -68.17273443 233.47386491 -63.88671875 236.484375 C-61.94975621 237.70916837 -59.99859347 238.87920069 -58 240 C-59.39965598 242.79931196 -61.61426469 243.51299244 -64.30859375 244.90234375 C-66.31766868 246.04751017 -66.31766868 246.04751017 -68 249 C-68.58151496 253.59565742 -68.58151496 253.59565742 -66.734375 257.59375 C-64.30688774 259.56198291 -61.67727593 260.66937388 -58.83984375 261.9375 C-57 263 -57 263 -55 266 C-54.83642578 268.72387695 -54.83642578 268.72387695 -54.9453125 271.98828125 C-54.98205078 273.76041992 -54.98205078 273.76041992 -55.01953125 275.56835938 C-55.08952048 278.05297688 -55.16757091 280.53738114 -55.25390625 283.02148438 C-55.52274132 291.84883284 -55.52274132 291.84883284 -51 299 C-41.72016845 305.83777061 -29.65423241 305.06770996 -18.765625 303.54882812 C-10.80422154 302.23556009 -2.89953549 300.64031981 5 299 C22.44717708 295.42030886 22.44717708 295.42030886 30 295 C31.19302734 294.92072266 31.19302734 294.92072266 32.41015625 294.83984375 C41.74119546 294.49972663 51.28767684 296.34493155 58.91015625 301.96875 C72.17342042 314.86014695 77.15365252 336.15946276 77.43115234 353.9375 C77.43587783 355.27082664 77.43794326 356.60416506 77.4375 357.9375 C77.4385675 358.62086426 77.43963501 359.30422852 77.44073486 360.00830078 C77.41460813 371.62350211 76.0369336 382.06630899 72 393 C71.75942871 393.67933594 71.51885742 394.35867188 71.27099609 395.05859375 C63.67333816 416.29738534 63.67333816 416.29738534 56 423 C55.34 423 54.68 423 54 423 C53.6596875 423.804375 53.6596875 423.804375 53.3125 424.625 C52 427 52 427 49.78515625 429.50390625 C46.23546621 433.71520788 43.76049748 438.49866232 41.125 443.3125 C36.30035785 451.99349521 31.32443792 460.56255858 26.1875 469.0625 C21.00408402 477.6436765 15.89803874 486.25238449 11 495 C6.46964225 493.56455698 3.49538999 491.03757851 0.125 487.8125 C-0.42800781 487.29220215 -0.98101562 486.7719043 -1.55078125 486.23583984 C-6.096047 481.92973201 -10.55886602 477.53815055 -15 473.125 C-15.62245605 472.50729736 -16.24491211 471.88959473 -16.88623047 471.25317383 C-20.47396857 467.65230629 -23.80665488 463.95539339 -27 460 C-21.02892894 445.50356638 1.13460445 435.60078409 14.66699219 429.91552734 C26.11881082 425.42156336 37.80945608 422.50344004 50 421 C51.66959434 420.68165485 53.33739598 420.35303933 55 420 C55.65247647 416.85550776 56.29572575 413.70919244 56.9375 410.5625 C57.11990234 409.68400391 57.30230469 408.80550781 57.49023438 407.90039062 C63.20163661 379.75875418 61.10215803 347.62181836 45 323 C44.57460938 322.33742188 44.14921875 321.67484375 43.7109375 320.9921875 C39.49096876 315.29152798 33.7260044 312.00712512 27 310 C15.30266722 308.32080101 3.33154348 310.38025875 -8.2668457 311.91601562 C-16.14469943 312.90595357 -23.93604713 313.36450862 -31.875 313.4375 C-32.92574707 313.45941406 -33.97649414 313.48132813 -35.05908203 313.50390625 C-43.46764979 313.482425 -50.74555499 311.62508309 -57.9375 307.1875 C-62.87534675 301.95038981 -65.15327444 296.44961528 -64.96484375 289.265625 C-64.96162109 288.13382813 -64.95839844 287.00203125 -64.95507812 285.8359375 C-64.94343384 283.4605035 -64.89699384 281.08496557 -64.81445312 278.7109375 C-64.76055928 272.10029483 -64.76055928 272.10029483 -68.19189453 266.75195312 C-70.82415174 264.89560961 -70.82415174 264.89560961 -73.55688477 263.45605469 C-76.15857451 261.90549232 -77.41929553 260.5586897 -79 258 C-79.968707 253.58449835 -79.86481539 249.55917441 -77.65234375 245.5703125 C-76.18197529 243.61677332 -74.67261138 241.7821276 -73 240 C-73.61488281 239.72027344 -74.22976562 239.44054687 -74.86328125 239.15234375 C-78.67499962 237.09666382 -80.65401865 234.03794404 -82 230 C-82.4724621 225.19663533 -82.7211119 222.33371503 -79.625 218.5 C-77 216 -77 216 -75 216 C-73.15584399 212.2032082 -72.64959873 210.03278925 -74 206 C-76.14468003 203.91868885 -76.14468003 203.91868885 -78.8125 202.125 C-84.02610724 198.12715525 -87.14670148 195.29470081 -88.47265625 188.62109375 C-88.88235565 183.74194639 -88.28041808 180.67194516 -85.125 176.875 C-81.51813487 173.24627509 -77.51302539 170.13184936 -73.484375 166.98828125 C-66.08551624 161.06686756 -60.44327677 154.39990894 -56 146 C-55.64043213 145.3918042 -55.28086426 144.7836084 -54.91040039 144.15698242 C-50.3604223 135.13611278 -51.68163607 124.87341371 -51.9375 115.0625 C-52.38882447 96.72724408 -51.53331507 79.47600938 -45.4375 62 C-44.92413086 60.4991687 -44.92413086 60.4991687 -44.40039062 58.96801758 C-38.06477451 41.13280485 -29.11364994 24.59511962 -14.41796875 12.38671875 C-11.77576069 9.77865877 -10.52175852 7.36074163 -9 4 C-6.1650547 0.40906929 -4.58063893 -0.50895988 0 0 Z " fill="#0153CE" transform="translate(330,381)"/>
<path d="M0 0 C-3.11302473 2.07534982 -3.69794349 2.23487803 -7.20703125 2.203125 C-57.87567123 2.62210493 -109.25417846 17.87467375 -155 39 C-155.92312988 39.42571289 -156.84625977 39.85142578 -157.79736328 40.29003906 C-179.50610042 50.44169035 -200.70187299 62.77716003 -220 77 C-220.68707031 77.50595703 -221.37414062 78.01191406 -222.08203125 78.53320312 C-232.07835656 85.94489297 -241.69290485 93.74118688 -251 102 C-251.73484619 102.64727051 -252.46969238 103.29454102 -253.22680664 103.96142578 C-259.36994775 109.42131843 -265.27744214 115.09117553 -271.08666992 120.90136719 C-272.55955972 122.3720641 -274.04030265 123.83453534 -275.52148438 125.296875 C-281.79156436 131.53050596 -287.48200724 138.08839163 -293 145 C-293.94645276 146.11359773 -294.89952177 147.2216586 -295.86328125 148.3203125 C-303.24156812 156.76945121 -309.6837237 165.73842127 -316 175 C-316.44762695 175.65291016 -316.89525391 176.30582031 -317.35644531 176.97851562 C-332.40371022 198.98190972 -345.3986867 222.52929938 -356 247 C-356.29503418 247.67820801 -356.59006836 248.35641602 -356.89404297 249.05517578 C-375.31404279 291.87668286 -387.11762124 340.47692018 -387.16796875 387.1953125 C-387.17129715 388.30824677 -387.17462555 389.42118103 -387.17805481 390.56784058 C-387.18307782 392.90557447 -387.18546458 395.24331541 -387.18530273 397.58105469 C-387.18748191 401.09582774 -387.20566808 404.6102825 -387.22460938 408.125 C-387.25776413 421.22031852 -386.77848216 434.02248192 -385 447 C-384.85393311 448.11262207 -384.70786621 449.22524414 -384.55737305 450.37158203 C-378.55066016 493.66073371 -365.92901161 536.03747976 -346 575 C-345.58234375 575.82532227 -345.1646875 576.65064453 -344.734375 577.50097656 C-334.04351742 598.43461902 -321.02774895 618.89156251 -306 637 C-305.54496094 637.54833496 -305.08992188 638.09666992 -304.62109375 638.66162109 C-292.71358635 652.93872246 -280.2446358 667.00926227 -266 679 C-265.49597656 679.43376953 -264.99195313 679.86753906 -264.47265625 680.31445312 C-254.82403442 688.59265869 -244.64287257 695.77661974 -233.98632812 702.70678711 C-232.99439453 703.35268799 -232.00246094 703.99858887 -230.98046875 704.6640625 C-230.09254639 705.23592285 -229.20462402 705.8077832 -228.28979492 706.39697266 C-226.28337148 707.80161882 -224.65321242 709.20384192 -223 711 C-226.98498461 710.44314626 -230.37571572 709.60149905 -234.0625 708 C-235.10792969 707.54753906 -236.15335938 707.09507812 -237.23046875 706.62890625 C-237.82134277 706.37125488 -238.4122168 706.11360352 -239.02099609 705.84814453 C-241.22882488 704.90193219 -243.45092401 703.99527248 -245.67578125 703.08984375 C-270.32985538 692.9538602 -293.09745728 679.54547319 -314 663 C-314.80195801 662.36843994 -314.80195801 662.36843994 -315.62011719 661.72412109 C-323.47314435 655.4895004 -329.83548089 648.95278502 -336 641 C-337.62084529 639.10061337 -339.2460022 637.20489932 -340.875 635.3125 C-363.58889105 608.01383279 -379.72993738 575.70606178 -393 543 C-393.38285156 542.0610791 -393.76570313 541.1221582 -394.16015625 540.15478516 C-406.19253082 510.20149846 -412.7960671 477.88255233 -417 446 C-417.1844165 444.61506348 -417.1844165 444.61506348 -417.37255859 443.20214844 C-419.11957375 429.37748741 -419.17840066 415.53743072 -419.1875 401.625 C-419.18858765 400.73134735 -419.18967529 399.8376947 -419.1907959 398.91696167 C-419.18858157 382.84853844 -418.73660508 366.96671821 -416.25 351.0625 C-416.0737207 349.91628174 -415.89744141 348.77006348 -415.71582031 347.58911133 C-411.30971418 319.51268026 -405.72720379 291.41906389 -395 265 C-394.53190077 263.7339219 -394.06980464 262.46561052 -393.61328125 261.1953125 C-372.47605122 202.44010951 -334.16741761 144.62172898 -286.29296875 103.953125 C-284.42099222 102.35859644 -282.57632179 100.74249358 -280.73828125 99.109375 C-229.72174687 53.97726579 -165.63858265 22.59165613 -99 9 C-97.69603271 8.72978027 -97.69603271 8.72978027 -96.36572266 8.45410156 C-64.44970279 1.89414654 -32.55689923 -0.48603547 0 0 Z " fill="#0354CD" transform="translate(550,177)"/>
</svg>
